<svg width="20" height="20" viewBox="0 0 20 20" fill="none" xmlns="http://www.w3.org/2000/svg">
<path d="M17.5996 10.6001C18.1519 10.6001 18.5996 10.1524 18.5996 9.6001C18.5996 9.04781 18.1519 8.6001 17.5996 8.6001V10.6001ZM2.22584 8.89299C1.83531 9.28352 1.83531 9.91668 2.22584 10.3072L8.5898 16.6712C8.98032 17.0617 9.61349 17.0617 10.004 16.6712C10.3945 16.2806 10.3945 15.6475 10.004 15.257L4.34716 9.6001L10.004 3.94324C10.3945 3.55272 10.3945 2.91955 10.004 2.52903C9.61349 2.13851 8.98032 2.13851 8.5898 2.52903L2.22584 8.89299ZM17.5996 8.6001L2.93294 8.6001V10.6001L17.5996 10.6001V8.6001Z" fill="black"/>
</svg>
