<svg width="15" height="16" viewBox="0 0 15 16" fill="none" xmlns="http://www.w3.org/2000/svg">
<path d="M7.5 12.375C7.62361 12.375 7.74445 12.3383 7.84723 12.2697C7.95001 12.201 8.03012 12.1034 8.07742 11.9892C8.12473 11.875 8.13711 11.7493 8.11299 11.6281C8.08888 11.5068 8.02935 11.3955 7.94194 11.3081C7.85453 11.2206 7.74317 11.1611 7.62193 11.137C7.50069 11.1129 7.37503 11.1253 7.26082 11.1726C7.14662 11.2199 7.04901 11.3 6.98033 11.4028C6.91166 11.5055 6.875 11.6264 6.875 11.75C6.875 11.9158 6.94085 12.0747 7.05806 12.1919C7.17527 12.3092 7.33424 12.375 7.5 12.375ZM10.625 12.375C10.7486 12.375 10.8695 12.3383 10.9722 12.2697C11.075 12.201 11.1551 12.1034 11.2024 11.9892C11.2497 11.875 11.2621 11.7493 11.238 11.6281C11.2139 11.5068 11.1544 11.3955 11.0669 11.3081C10.9795 11.2206 10.8682 11.1611 10.7469 11.137C10.6257 11.1129 10.5 11.1253 10.3858 11.1726C10.2716 11.2199 10.174 11.3 10.1053 11.4028C10.0367 11.5055 10 11.6264 10 11.75C10 11.9158 10.0658 12.0747 10.1831 12.1919C10.3003 12.3092 10.4592 12.375 10.625 12.375ZM10.625 9.875C10.7486 9.875 10.8695 9.83834 10.9722 9.76967C11.075 9.70099 11.1551 9.60338 11.2024 9.48918C11.2497 9.37497 11.2621 9.24931 11.238 9.12807C11.2139 9.00683 11.1544 8.89547 11.0669 8.80806C10.9795 8.72065 10.8682 8.66112 10.7469 8.63701C10.6257 8.61289 10.5 8.62527 10.3858 8.67258C10.2716 8.71988 10.174 8.79999 10.1053 8.90277C10.0367 9.00555 10 9.12639 10 9.25C10 9.41576 10.0658 9.57473 10.1831 9.69194C10.3003 9.80915 10.4592 9.875 10.625 9.875ZM7.5 9.875C7.62361 9.875 7.74445 9.83834 7.84723 9.76967C7.95001 9.70099 8.03012 9.60338 8.07742 9.48918C8.12473 9.37497 8.13711 9.24931 8.11299 9.12807C8.08888 9.00683 8.02935 8.89547 7.94194 8.80806C7.85453 8.72065 7.74317 8.66112 7.62193 8.63701C7.50069 8.61289 7.37503 8.62527 7.26082 8.67258C7.14662 8.71988 7.04901 8.79999 6.98033 8.90277C6.91166 9.00555 6.875 9.12639 6.875 9.25C6.875 9.41576 6.94085 9.57473 7.05806 9.69194C7.17527 9.80915 7.33424 9.875 7.5 9.875ZM11.875 2.375H11.25V1.75C11.25 1.58424 11.1842 1.42527 11.0669 1.30806C10.9497 1.19085 10.7908 1.125 10.625 1.125C10.4592 1.125 10.3003 1.19085 10.1831 1.30806C10.0658 1.42527 10 1.58424 10 1.75V2.375H5V1.75C5 1.58424 4.93415 1.42527 4.81694 1.30806C4.69973 1.19085 4.54076 1.125 4.375 1.125C4.20924 1.125 4.05027 1.19085 3.93306 1.30806C3.81585 1.42527 3.75 1.58424 3.75 1.75V2.375H3.125C2.62772 2.375 2.15081 2.57254 1.79917 2.92417C1.44754 3.27581 1.25 3.75272 1.25 4.25V13C1.25 13.4973 1.44754 13.9742 1.79917 14.3258C2.15081 14.6775 2.62772 14.875 3.125 14.875H11.875C12.3723 14.875 12.8492 14.6775 13.2008 14.3258C13.5525 13.9742 13.75 13.4973 13.75 13V4.25C13.75 3.75272 13.5525 3.27581 13.2008 2.92417C12.8492 2.57254 12.3723 2.375 11.875 2.375ZM12.5 13C12.5 13.1658 12.4342 13.3247 12.3169 13.4419C12.1997 13.5592 12.0408 13.625 11.875 13.625H3.125C2.95924 13.625 2.80027 13.5592 2.68306 13.4419C2.56585 13.3247 2.5 13.1658 2.5 13V7.375H12.5V13ZM12.5 6.125H2.5V4.25C2.5 4.08424 2.56585 3.92527 2.68306 3.80806C2.80027 3.69085 2.95924 3.625 3.125 3.625H3.75V4.25C3.75 4.41576 3.81585 4.57473 3.93306 4.69194C4.05027 4.80915 4.20924 4.875 4.375 4.875C4.54076 4.875 4.69973 4.80915 4.81694 4.69194C4.93415 4.57473 5 4.41576 5 4.25V3.625H10V4.25C10 4.41576 10.0658 4.57473 10.1831 4.69194C10.3003 4.80915 10.4592 4.875 10.625 4.875C10.7908 4.875 10.9497 4.80915 11.0669 4.69194C11.1842 4.57473 11.25 4.41576 11.25 4.25V3.625H11.875C12.0408 3.625 12.1997 3.69085 12.3169 3.80806C12.4342 3.92527 12.5 4.08424 12.5 4.25V6.125ZM4.375 9.875C4.49861 9.875 4.61945 9.83834 4.72223 9.76967C4.82501 9.70099 4.90512 9.60338 4.95242 9.48918C4.99973 9.37497 5.01211 9.24931 4.98799 9.12807C4.96388 9.00683 4.90435 8.89547 4.81694 8.80806C4.72953 8.72065 4.61817 8.66112 4.49693 8.63701C4.37569 8.61289 4.25003 8.62527 4.13582 8.67258C4.02162 8.71988 3.92401 8.79999 3.85533 8.90277C3.78666 9.00555 3.75 9.12639 3.75 9.25C3.75 9.41576 3.81585 9.57473 3.93306 9.69194C4.05027 9.80915 4.20924 9.875 4.375 9.875ZM4.375 12.375C4.49861 12.375 4.61945 12.3383 4.72223 12.2697C4.82501 12.201 4.90512 12.1034 4.95242 11.9892C4.99973 11.875 5.01211 11.7493 4.98799 11.6281C4.96388 11.5068 4.90435 11.3955 4.81694 11.3081C4.72953 11.2206 4.61817 11.1611 4.49693 11.137C4.37569 11.1129 4.25003 11.1253 4.13582 11.1726C4.02162 11.2199 3.92401 11.3 3.85533 11.4028C3.78666 11.5055 3.75 11.6264 3.75 11.75C3.75 11.9158 3.81585 12.0747 3.93306 12.1919C4.05027 12.3092 4.20924 12.375 4.375 12.375Z" fill="#A7A7A7"/>
</svg>
