<svg width="26" height="18" viewBox="0 0 26 18" fill="none" xmlns="http://www.w3.org/2000/svg">
<path d="M24.25 12.75H11.75C11.4185 12.75 11.1005 12.6183 10.8661 12.3839C10.6317 12.1495 10.5 11.8315 10.5 11.5C10.5 11.1685 10.6317 10.8505 10.8661 10.6161C11.1005 10.3817 11.4185 10.25 11.75 10.25H24.25C24.5815 10.25 24.8995 10.3817 25.1339 10.6161C25.3683 10.8505 25.5 11.1685 25.5 11.5C25.5 11.8315 25.3683 12.1495 25.1339 12.3839C24.8995 12.6183 24.5815 12.75 24.25 12.75ZM24.25 7.75H11.75C11.4185 7.75 11.1005 7.6183 10.8661 7.38388C10.6317 7.14946 10.5 6.83152 10.5 6.5C10.5 6.16848 10.6317 5.85054 10.8661 5.61612C11.1005 5.3817 11.4185 5.25 11.75 5.25H24.25C24.5815 5.25 24.8995 5.3817 25.1339 5.61612C25.3683 5.85054 25.5 6.16848 25.5 6.5C25.5 6.83152 25.3683 7.14946 25.1339 7.38388C24.8995 7.6183 24.5815 7.75 24.25 7.75ZM24.25 2.75H1.75C1.41848 2.75 1.10054 2.6183 0.866116 2.38388C0.631695 2.14946 0.5 1.83152 0.5 1.5C0.5 1.16848 0.631695 0.850537 0.866116 0.616117C1.10054 0.381696 1.41848 0.25 1.75 0.25H24.25C24.5815 0.25 24.8995 0.381696 25.1339 0.616117C25.3683 0.850537 25.5 1.16848 25.5 1.5C25.5 1.83152 25.3683 2.14946 25.1339 2.38388C24.8995 2.6183 24.5815 2.75 24.25 2.75ZM1.75 15.25H24.25C24.5815 15.25 24.8995 15.3817 25.1339 15.6161C25.3683 15.8505 25.5 16.1685 25.5 16.5C25.5 16.8315 25.3683 17.1495 25.1339 17.3839C24.8995 17.6183 24.5815 17.75 24.25 17.75H1.75C1.41848 17.75 1.10054 17.6183 0.866116 17.3839C0.631695 17.1495 0.5 16.8315 0.5 16.5C0.5 16.1685 0.631695 15.8505 0.866116 15.6161C1.10054 15.3817 1.41848 15.25 1.75 15.25ZM3.45 5.9625C3.57345 5.84312 3.72017 5.75045 3.88101 5.69029C4.04185 5.63012 4.21337 5.60374 4.38486 5.61279C4.55635 5.62184 4.72413 5.66613 4.87775 5.7429C5.03136 5.81966 5.16751 5.92726 5.2777 6.05897C5.3879 6.19069 5.46976 6.34369 5.51821 6.50845C5.56665 6.6732 5.58062 6.84617 5.55926 7.01656C5.53789 7.18696 5.48165 7.35112 5.39403 7.49882C5.30641 7.64651 5.1893 7.77457 5.05 7.875L3.7 9L5.05 10.125C5.17657 10.2299 5.2812 10.3588 5.35789 10.5042C5.43458 10.6497 5.48183 10.8088 5.49692 10.9725C5.51202 11.1363 5.49466 11.3013 5.44586 11.4584C5.39705 11.6154 5.31775 11.7612 5.2125 11.8875C5.09497 12.0286 4.9478 12.1421 4.78144 12.2199C4.61509 12.2976 4.43364 12.3378 4.25 12.3375C3.95637 12.3346 3.67315 12.2284 3.45 12.0375L0.950001 9.9625C0.808451 9.84521 0.694513 9.69814 0.616308 9.53177C0.538103 9.3654 0.497555 9.18383 0.497555 9C0.497555 8.81617 0.538103 8.6346 0.616308 8.46823C0.694513 8.30186 0.808451 8.15479 0.950001 8.0375L3.45 5.9625Z" fill="black"/>
</svg>
