<svg width="80" height="80" viewBox="0 0 80 80" fill="none" xmlns="http://www.w3.org/2000/svg">
<circle cx="40" cy="40" r="40" fill="#F5F6FD"/>
<path d="M53.3875 32.8625C53.2713 32.7453 53.133 32.6523 52.9807 32.5889C52.8284 32.5254 52.665 32.4928 52.5 32.4928C52.335 32.4928 52.1716 32.5254 52.0193 32.5889C51.867 32.6523 51.7287 32.7453 51.6125 32.8625L50 34.4875V27.5C50 27.1685 49.8683 26.8505 49.6339 26.6161C49.3995 26.3817 49.0815 26.25 48.75 26.25C48.4185 26.25 48.1005 26.3817 47.8661 26.6161C47.6317 26.8505 47.5 27.1685 47.5 27.5V34.4875L45.8875 32.8625C45.6521 32.6271 45.3329 32.4949 45 32.4949C44.6671 32.4949 44.3479 32.6271 44.1125 32.8625C43.8771 33.0979 43.7449 33.4171 43.7449 33.75C43.7449 34.0829 43.8771 34.4021 44.1125 34.6375L47.8625 38.3875C47.9814 38.5013 48.1216 38.5905 48.275 38.65C48.4246 38.7161 48.5864 38.7503 48.75 38.7503C48.9136 38.7503 49.0754 38.7161 49.225 38.65C49.3784 38.5905 49.5186 38.5013 49.6375 38.3875L53.3875 34.6375C53.5047 34.5213 53.5977 34.383 53.6611 34.2307C53.7246 34.0784 53.7572 33.915 53.7572 33.75C53.7572 33.585 53.7246 33.4216 53.6611 33.2693C53.5977 33.117 53.5047 32.9787 53.3875 32.8625ZM48.75 41.25C48.4185 41.25 48.1005 41.3817 47.8661 41.6161C47.6317 41.8505 47.5 42.1685 47.5 42.5V42.975L45.65 41.125C44.9968 40.4769 44.1139 40.1133 43.1938 40.1133C42.2736 40.1133 41.3907 40.4769 40.7375 41.125L39.8625 42L36.7625 38.9C36.1001 38.2695 35.2207 37.9179 34.3063 37.9179C33.3918 37.9179 32.5124 38.2695 31.85 38.9L30 40.75V33.75C30 33.4185 30.1317 33.1005 30.3661 32.8661C30.6005 32.6317 30.9185 32.5 31.25 32.5H41.25C41.5815 32.5 41.8995 32.3683 42.1339 32.1339C42.3683 31.8995 42.5 31.5815 42.5 31.25C42.5 30.9185 42.3683 30.6005 42.1339 30.3661C41.8995 30.1317 41.5815 30 41.25 30H31.25C30.2554 30 29.3016 30.3951 28.5983 31.0983C27.8951 31.8016 27.5 32.7554 27.5 33.75V48.75C27.5 49.7446 27.8951 50.6984 28.5983 51.4017C29.3016 52.1049 30.2554 52.5 31.25 52.5H46.25C47.2446 52.5 48.1984 52.1049 48.9017 51.4017C49.6049 50.6984 50 49.7446 50 48.75V42.5C50 42.1685 49.8683 41.8505 49.6339 41.6161C49.3995 41.3817 49.0815 41.25 48.75 41.25ZM31.25 50C30.9185 50 30.6005 49.8683 30.3661 49.6339C30.1317 49.3995 30 49.0815 30 48.75V44.2875L33.625 40.6625C33.8086 40.4875 34.0526 40.3899 34.3063 40.3899C34.5599 40.3899 34.8039 40.4875 34.9875 40.6625L38.95 44.625L44.325 50H31.25ZM47.5 48.75C47.4982 48.9893 47.4193 49.2216 47.275 49.4125L41.6375 43.75L42.5125 42.875C42.6021 42.7835 42.7091 42.7109 42.8271 42.6613C42.9452 42.6117 43.0719 42.5861 43.2 42.5861C43.3281 42.5861 43.4548 42.6117 43.5729 42.6613C43.6909 42.7109 43.7979 42.7835 43.8875 42.875L47.5 46.5125V48.75Z" fill="#6171FF"/>
</svg>
