<svg width="26" height="18" viewBox="0 0 26 18" fill="none" xmlns="http://www.w3.org/2000/svg">
<path d="M1.75 2.75H24.25C24.5815 2.75 24.8995 2.6183 25.1339 2.38388C25.3683 2.14946 25.5 1.83152 25.5 1.5C25.5 1.16848 25.3683 0.850537 25.1339 0.616117C24.8995 0.381696 24.5815 0.25 24.25 0.25H1.75C1.41848 0.25 1.10054 0.381696 0.866116 0.616117C0.631696 0.850537 0.5 1.16848 0.5 1.5C0.5 1.83152 0.631696 2.14946 0.866116 2.38388C1.10054 2.6183 1.41848 2.75 1.75 2.75ZM24.25 15.25H1.75C1.41848 15.25 1.10054 15.3817 0.866116 15.6161C0.631696 15.8505 0.5 16.1685 0.5 16.5C0.5 16.8315 0.631696 17.1495 0.866116 17.3839C1.10054 17.6183 1.41848 17.75 1.75 17.75H24.25C24.5815 17.75 24.8995 17.6183 25.1339 17.3839C25.3683 17.1495 25.5 16.8315 25.5 16.5C25.5 16.1685 25.3683 15.8505 25.1339 15.6161C24.8995 15.3817 24.5815 15.25 24.25 15.25ZM24.25 10.25H1.75C1.41848 10.25 1.10054 10.3817 0.866116 10.6161C0.631696 10.8505 0.5 11.1685 0.5 11.5C0.5 11.8315 0.631696 12.1495 0.866116 12.3839C1.10054 12.6183 1.41848 12.75 1.75 12.75H24.25C24.5815 12.75 24.8995 12.6183 25.1339 12.3839C25.3683 12.1495 25.5 11.8315 25.5 11.5C25.5 11.1685 25.3683 10.8505 25.1339 10.6161C24.8995 10.3817 24.5815 10.25 24.25 10.25ZM24.25 5.25H1.75C1.41848 5.25 1.10054 5.3817 0.866116 5.61612C0.631696 5.85054 0.5 6.16848 0.5 6.5C0.5 6.83152 0.631696 7.14946 0.866116 7.38388C1.10054 7.6183 1.41848 7.75 1.75 7.75H24.25C24.5815 7.75 24.8995 7.6183 25.1339 7.38388C25.3683 7.14946 25.5 6.83152 25.5 6.5C25.5 6.16848 25.3683 5.85054 25.1339 5.61612C24.8995 5.3817 24.5815 5.25 24.25 5.25Z" fill="#050505"/>
</svg>
