<svg width="28" height="28" viewBox="0 0 28 28" fill="none" xmlns="http://www.w3.org/2000/svg">
<path d="M12.75 10.25H17.75C18.0815 10.25 18.3995 10.1183 18.6339 9.88388C18.8683 9.64946 19 9.33152 19 9C19 8.66848 18.8683 8.35054 18.6339 8.11612C18.3995 7.8817 18.0815 7.75 17.75 7.75H15.25V6.5C15.25 6.16848 15.1183 5.85054 14.8839 5.61612C14.6495 5.3817 14.3315 5.25 14 5.25C13.6685 5.25 13.3505 5.3817 13.1161 5.61612C12.8817 5.85054 12.75 6.16848 12.75 6.5V7.75C11.7554 7.75 10.8016 8.14509 10.0984 8.84835C9.39509 9.55161 9.00001 10.5054 9.00001 11.5C9.00001 12.4946 9.39509 13.4484 10.0984 14.1517C10.8016 14.8549 11.7554 15.25 12.75 15.25H15.25C15.5815 15.25 15.8995 15.3817 16.1339 15.6161C16.3683 15.8505 16.5 16.1685 16.5 16.5C16.5 16.8315 16.3683 17.1495 16.1339 17.3839C15.8995 17.6183 15.5815 17.75 15.25 17.75H10.25C9.91849 17.75 9.60054 17.8817 9.36612 18.1161C9.1317 18.3505 9.00001 18.6685 9.00001 19C9.00001 19.3315 9.1317 19.6495 9.36612 19.8839C9.60054 20.1183 9.91849 20.25 10.25 20.25H12.75V21.5C12.75 21.8315 12.8817 22.1495 13.1161 22.3839C13.3505 22.6183 13.6685 22.75 14 22.75C14.3315 22.75 14.6495 22.6183 14.8839 22.3839C15.1183 22.1495 15.25 21.8315 15.25 21.5V20.25C16.2446 20.25 17.1984 19.8549 17.9017 19.1517C18.6049 18.4484 19 17.4946 19 16.5C19 15.5054 18.6049 14.5516 17.9017 13.8483C17.1984 13.1451 16.2446 12.75 15.25 12.75H12.75C12.4185 12.75 12.1005 12.6183 11.8661 12.3839C11.6317 12.1495 11.5 11.8315 11.5 11.5C11.5 11.1685 11.6317 10.8505 11.8661 10.6161C12.1005 10.3817 12.4185 10.25 12.75 10.25ZM14 0.25C11.2805 0.25 8.62209 1.05642 6.36092 2.56729C4.09974 4.07816 2.33737 6.22562 1.29666 8.7381C0.255958 11.2506 -0.0163382 14.0153 0.514209 16.6825C1.04476 19.3497 2.35432 21.7997 4.27729 23.7227C6.20026 25.6457 8.65028 26.9552 11.3175 27.4858C13.9848 28.0163 16.7494 27.744 19.2619 26.7033C21.7744 25.6626 23.9218 23.9003 25.4327 21.6391C26.9436 19.3779 27.75 16.7195 27.75 14C27.75 10.3533 26.3014 6.85591 23.7227 4.27728C21.1441 1.69866 17.6467 0.25 14 0.25ZM14 25.25C11.775 25.25 9.59989 24.5902 7.74984 23.354C5.89979 22.1179 4.45785 20.3609 3.60636 18.3052C2.75488 16.2495 2.53209 13.9875 2.96617 11.8052C3.40026 9.62295 4.47171 7.61839 6.04505 6.04505C7.6184 4.47171 9.62295 3.40025 11.8052 2.96617C13.9875 2.53208 16.2495 2.75487 18.3052 3.60636C20.3609 4.45784 22.1179 5.89978 23.354 7.74984C24.5902 9.59989 25.25 11.775 25.25 14C25.25 16.9837 24.0647 19.8452 21.955 21.955C19.8452 24.0647 16.9837 25.25 14 25.25Z" fill="#6171FF"/>
</svg>
