<svg width="26" height="26" viewBox="0 0 26 26" fill="none" xmlns="http://www.w3.org/2000/svg">
<path d="M24.25 0.5H1.75C1.41848 0.5 1.10054 0.631696 0.866116 0.866116C0.631696 1.10054 0.5 1.41848 0.5 1.75V24.25C0.5 24.5815 0.631696 24.8995 0.866116 25.1339C1.10054 25.3683 1.41848 25.5 1.75 25.5H24.25C24.5815 25.5 24.8995 25.3683 25.1339 25.1339C25.3683 24.8995 25.5 24.5815 25.5 24.25V1.75C25.5 1.41848 25.3683 1.10054 25.1339 0.866116C24.8995 0.631696 24.5815 0.5 24.25 0.5ZM11.75 23H3V18H11.75V23ZM11.75 15.5H3V10.5H11.75V15.5ZM23 23H14.25V18H23V23ZM23 15.5H14.25V10.5H23V15.5ZM23 8H3V3H23V8Z" fill="black" fill-opacity="0.5"/>
</svg>
