<svg width="13" height="12" viewBox="0 0 13 12" fill="none" xmlns="http://www.w3.org/2000/svg">
<path d="M10.4627 11.0417C10.3597 11.1688 10.1969 11.25 10.0207 11.25C9.87607 11.2507 9.73605 11.1958 9.62565 11.0852L7.37272 8.829C7.15342 8.60933 7.15342 8.25322 7.37272 8.03355C7.5921 7.81388 7.94775 7.81388 8.16705 8.03355L9.45825 9.33308V1.3125C9.45825 1.00184 9.71055 0.75 10.0207 0.75C10.3309 0.75 10.5832 1.00184 10.5832 1.3125V9.3252L11.8744 8.03693C12.0937 7.81725 12.4494 7.81725 12.6688 8.03693C12.8881 8.2566 12.8881 8.61277 12.6688 8.83237L10.4627 11.0417ZM4.08773 0.958313C3.98475 0.831225 3.82191 0.750008 3.64575 0.750008C3.50107 0.749288 3.36103 0.804203 3.25065 0.914753L0.997755 3.17099C0.778418 3.39065 0.778418 3.74681 0.997755 3.96648C1.2171 4.18615 1.57273 4.18615 1.79207 3.96648L3.08325 2.66693V10.6875C3.08325 10.9981 3.33555 11.25 3.64575 11.25C3.95595 11.25 4.20825 10.9981 4.20825 10.6875V2.6748L5.49943 3.96309C5.71877 4.18277 6.0744 4.18277 6.29374 3.96309C6.51308 3.74342 6.51308 3.38727 6.29374 3.1676L4.08773 0.958313Z" fill="#A7A7A7"/>
</svg>
