<svg width="26" height="26" viewBox="0 0 26 26" fill="none" xmlns="http://www.w3.org/2000/svg">
<path d="M7.37502 5.50002C7.00418 5.50002 6.64167 5.60999 6.33333 5.81602C6.02498 6.02204 5.78466 6.31488 5.64275 6.65749C5.50083 7.0001 5.4637 7.3771 5.53605 7.74082C5.6084 8.10453 5.78697 8.43862 6.0492 8.70085C6.31142 8.96307 6.64551 9.14165 7.00923 9.21399C7.37294 9.28634 7.74994 9.24921 8.09255 9.1073C8.43516 8.96538 8.728 8.72506 8.93403 8.41671C9.14005 8.10837 9.25002 7.74586 9.25002 7.37502C9.25002 6.87774 9.05248 6.40083 8.70085 6.0492C8.34922 5.69756 7.8723 5.50002 7.37502 5.50002ZM24.4 11.3875L13.8875 0.862521C13.7707 0.746669 13.6322 0.655013 13.4799 0.592807C13.3276 0.530601 13.1645 0.49907 13 0.500021H1.75002C1.4185 0.500021 1.10056 0.631717 0.866137 0.866137C0.631717 1.10056 0.500021 1.4185 0.500021 1.75002V13C0.49907 13.1645 0.530601 13.3276 0.592807 13.4799C0.655013 13.6322 0.746669 13.7707 0.862521 13.8875L11.3875 24.4C12.0906 25.1023 13.0438 25.4967 14.0375 25.4967C15.0313 25.4967 15.9844 25.1023 16.6875 24.4L24.4 16.75C25.1023 16.0469 25.4967 15.0938 25.4967 14.1C25.4967 13.1063 25.1023 12.1531 24.4 11.45V11.3875ZM22.6375 14.9125L14.9125 22.625C14.6783 22.8578 14.3615 22.9885 14.0313 22.9885C13.701 22.9885 13.3842 22.8578 13.15 22.625L3.00002 12.4875V3.00002H12.4875L22.6375 13.15C22.7534 13.2668 22.845 13.4053 22.9072 13.5576C22.9694 13.7099 23.001 13.873 23 14.0375C22.9986 14.3654 22.8685 14.6797 22.6375 14.9125Z" fill="#6171FF"/>
</svg>
