<svg width="26" height="26" viewBox="0 0 26 26" fill="none" xmlns="http://www.w3.org/2000/svg">
<path d="M22.3 14.25C22.025 14.25 21.7375 14.1625 21.4625 14.1C20.9056 13.9772 20.3583 13.8143 19.825 13.6125C19.2451 13.4015 18.6077 13.4124 18.0354 13.6432C17.4631 13.874 16.9964 14.3083 16.725 14.8625L16.45 15.425C15.2325 14.7477 14.1137 13.9065 13.125 12.925C12.1435 11.9362 11.3023 10.8175 10.625 9.59996L11.15 9.24996C11.7042 8.9786 12.1385 8.51187 12.3692 7.93957C12.6 7.36727 12.611 6.72985 12.4 6.14996C12.2015 5.61548 12.0387 5.06845 11.9125 4.51246C11.85 4.23746 11.8 3.94996 11.7625 3.66246C11.6107 2.78198 11.1495 1.98463 10.462 1.41401C9.77453 0.843378 8.90587 0.536968 8.0125 0.549957H4.2625C3.72379 0.544899 3.19032 0.655974 2.69839 0.87562C2.20647 1.09527 1.76764 1.41833 1.41179 1.82281C1.05594 2.22729 0.791422 2.7037 0.636239 3.2196C0.481056 3.7355 0.438853 4.27878 0.512504 4.81246C1.17843 10.0492 3.57004 14.9148 7.30957 18.6408C11.0491 22.3667 15.9234 24.7406 21.1625 25.3875H21.6375C22.5593 25.3888 23.4493 25.0506 24.1375 24.4375C24.533 24.0838 24.8489 23.6502 25.0643 23.1654C25.2798 22.6805 25.39 22.1555 25.3875 21.625V17.875C25.3722 17.0067 25.056 16.1706 24.4929 15.5095C23.9298 14.8484 23.1548 14.4032 22.3 14.25ZM22.925 21.75C22.9248 21.9274 22.8868 22.1028 22.8135 22.2645C22.7402 22.4261 22.6333 22.5703 22.5 22.6875C22.3603 22.808 22.197 22.8981 22.0205 22.952C21.844 23.0058 21.6582 23.0221 21.475 23C16.7936 22.3997 12.4453 20.2581 9.1159 16.9128C5.7865 13.5676 3.66552 9.20913 3.0875 4.52496C3.06761 4.34185 3.08504 4.15662 3.13876 3.98045C3.19247 3.80427 3.28134 3.64082 3.4 3.49996C3.51714 3.36662 3.66133 3.25976 3.82298 3.18648C3.98462 3.1132 4.16002 3.07518 4.3375 3.07496H8.0875C8.37819 3.06849 8.66203 3.16356 8.89018 3.3438C9.11833 3.52403 9.27652 3.77817 9.3375 4.06246C9.3875 4.40412 9.45 4.74162 9.525 5.07496C9.6694 5.73389 9.86158 6.38143 10.1 7.01246L8.35 7.82496C8.20038 7.89361 8.06578 7.99114 7.95395 8.11195C7.84212 8.23276 7.75525 8.37448 7.69834 8.52895C7.64143 8.68343 7.61559 8.84762 7.62231 9.01211C7.62903 9.1766 7.66818 9.33814 7.7375 9.48746C9.5365 13.3409 12.6341 16.4385 16.4875 18.2375C16.7918 18.3625 17.1332 18.3625 17.4375 18.2375C17.5934 18.1817 17.7367 18.0955 17.859 17.9839C17.9813 17.8724 18.0802 17.7376 18.15 17.5875L18.925 15.8375C19.5712 16.0686 20.2307 16.2606 20.9 16.4125C21.2333 16.4875 21.5708 16.55 21.9125 16.6C22.1968 16.6609 22.4509 16.8191 22.6312 17.0473C22.8114 17.2754 22.9065 17.5593 22.9 17.85L22.925 21.75Z" fill="#6171FF"/>
</svg>
